<svg xmlns="http://www.w3.org/2000/svg" viewBox="0 0 640 640" role="img" aria-label="Artificial intelligence illustration">
  <defs>
    <linearGradient id="ai1" x1="0" y1="0" x2="1" y2="1">
      <stop offset="0%" stop-color="#f6f8ff"/>
      <stop offset="100%" stop-color="#e7efff"/>
    </linearGradient>
  </defs>
  <rect width="640" height="640" rx="96" fill="url(#ai1)"/>
  <circle cx="320" cy="298" r="132" fill="#fff" stroke="#0d3c75" stroke-width="20"/>
  <path d="M320 166v-40" stroke="#ffae24" stroke-width="18" stroke-linecap="round"/>
  <path d="M320 430v40" stroke="#ffae24" stroke-width="18" stroke-linecap="round"/>
  <path d="M232 274h-40" stroke="#ffae24" stroke-width="18" stroke-linecap="round"/>
  <path d="M448 274h40" stroke="#ffae24" stroke-width="18" stroke-linecap="round"/>
  <path d="M246 220l-28-28" stroke="#0d3c75" stroke-width="16" stroke-linecap="round"/>
  <path d="M554 218l-28-28" stroke="#0d3c75" stroke-width="16" stroke-linecap="round"/>
  <path d="M246 332l-28 28" stroke="#0d3c75" stroke-width="16" stroke-linecap="round"/>
  <path d="M554 334l-28 28" stroke="#0d3c75" stroke-width="16" stroke-linecap="round"/>
  <path d="M252 298h-48" stroke="#0d3c75" stroke-width="14" stroke-linecap="round"/>
  <path d="M448 298h48" stroke="#0d3c75" stroke-width="14" stroke-linecap="round"/>
  <rect x="262" y="304" width="116" height="70" rx="20" fill="#0d3c75" opacity="0.08"/>
  <circle cx="320" cy="298" r="22" fill="#0d3c75"/>
  <circle cx="190" cy="452" r="24" fill="#fbb040"/>
  <circle cx="450" cy="452" r="24" fill="#0d3c75"/>
  <path d="M190 452h92" stroke="#fff" stroke-width="12" stroke-linecap="round"/>
  <path d="M450 452h92" stroke="#fff" stroke-width="12" stroke-linecap="round"/>
</svg>
