<svg xmlns="http://www.w3.org/2000/svg" viewBox="0 0 640 640" role="img" aria-label="Coding illustration">
  <defs>
    <linearGradient id="g5" x1="0" y1="0" x2="1" y2="1">
      <stop offset="0%" stop-color="#eef7ff"/>
      <stop offset="100%" stop-color="#dfe9ff"/>
    </linearGradient>
  </defs>
  <rect width="640" height="640" rx="96" fill="url(#g5)"/>
  <rect x="150" y="176" width="340" height="278" rx="30" fill="#fff"/>
  <path d="M170 226h300" stroke="#0d3c75" stroke-width="22" stroke-linecap="round"/>
  <rect x="196" y="278" width="240" height="20" rx="10" fill="#123573" opacity="0.14"/>
  <rect x="196" y="318" width="180" height="20" rx="10" fill="#123573" opacity="0.14"/>
  <rect x="196" y="358" width="260" height="20" rx="10" fill="#123573" opacity="0.14"/>
  <rect x="196" y="398" width="100" height="20" rx="10" fill="#123573" opacity="0.14"/>
  <path d="M216 300l24 20-24 20" fill="none" stroke="#0d3c75" stroke-width="20" stroke-linecap="round" stroke-linejoin="round"/>
  <path d="M334 300l24 20-24 20" fill="none" stroke="#0d3c75" stroke-width="20" stroke-linecap="round" stroke-linejoin="round"/>
  <path d="M436 204h32v148h-32" fill="#ffae24" stroke="#0d3c75" stroke-width="14" stroke-linecap="round"/>
  <rect x="156" y="470" width="328" height="112" rx="28" fill="#fff"/>
  <path d="M232 504h56" stroke="#0d3c75" stroke-width="16" stroke-linecap="round"/>
  <path d="M232 540h56" stroke="#0d3c75" stroke-width="16" stroke-linecap="round"/>
  <path d="M352 520h80" stroke="#0d3c75" stroke-width="16" stroke-linecap="round"/>
  <path d="M452 520h32" stroke="#0d3c75" stroke-width="16" stroke-linecap="round"/>
</svg>
