<svg xmlns="http://www.w3.org/2000/svg" viewBox="0 0 640 640" role="img" aria-label="Robotics illustration">
  <defs>
    <linearGradient id="r1" x1="0" y1="0" x2="1" y2="1">
      <stop offset="0%" stop-color="#f5f5ff"/>
      <stop offset="100%" stop-color="#dde8ff"/>
    </linearGradient>
  </defs>
  <rect width="640" height="640" rx="96" fill="url(#r1)"/>
  <rect x="176" y="200" width="288" height="258" rx="40" fill="#fff" stroke="#0d3c75" stroke-width="18"/>
  <circle cx="320" cy="293" r="32" fill="#fbb040"/>
  <circle cx="254" cy="353" r="22" fill="#123573"/>
  <circle cx="386" cy="353" r="22" fill="#123573"/>
  <path d="M204 372h232" stroke="#0d3c75" stroke-width="16" stroke-linecap="round"/>
  <path d="M192 430h56v34h-56z" fill="#fff" stroke="#0d3c75" stroke-width="14"/>
  <path d="M392 430h56v34h-56z" fill="#fff" stroke="#0d3c75" stroke-width="14"/>
  <path d="M320 448v78" stroke="#0d3c75" stroke-width="18" stroke-linecap="round"/>
  <path d="M268 512h104" stroke="#0d3c75" stroke-width="18" stroke-linecap="round"/>
  <path d="M242 238l-26-44" stroke="#0d3c75" stroke-width="16" stroke-linecap="round"/>
  <path d="M398 238l26-44" stroke="#0d3c75" stroke-width="16" stroke-linecap="round"/>
  <circle cx="220" cy="188" r="18" fill="#fff" stroke="#0d3c75" stroke-width="12"/>
  <circle cx="420" cy="188" r="18" fill="#fff" stroke="#0d3c75" stroke-width="12"/>
  <path d="M220 192v40" stroke="#0d3c75" stroke-width="10" stroke-linecap="round"/>
  <path d="M420 192v40" stroke="#0d3c75" stroke-width="10" stroke-linecap="round"/>
</svg>
