<svg xmlns="http://www.w3.org/2000/svg" viewBox="0 0 640 640" role="img" aria-label="Technology illustration">
  <defs>
    <linearGradient id="g2" x1="0" y1="0" x2="1" y2="1">
      <stop offset="0%" stop-color="#eef8ff"/>
      <stop offset="100%" stop-color="#dbecff"/>
    </linearGradient>
  </defs>
  <rect width="640" height="640" rx="96" fill="url(#g2)"/>
  <rect x="142" y="184" width="356" height="268" rx="42" fill="#fff"/>
  <rect x="182" y="238" width="276" height="28" rx="14" fill="#0d3c75" opacity="0.12"/>
  <rect x="182" y="284" width="276" height="28" rx="14" fill="#0d3c75" opacity="0.08"/>
  <rect x="182" y="330" width="176" height="28" rx="14" fill="#0d3c75" opacity="0.08"/>
  <rect x="182" y="376" width="236" height="28" rx="14" fill="#0d3c75" opacity="0.08"/>
  <rect x="202" y="438" width="236" height="24" rx="12" fill="#123573" opacity="0.12"/>
  <rect x="272" y="470" width="92" height="18" rx="9" fill="#123573" opacity="0.18"/>
  <path d="M158 238c-10 0-18-8-18-18V174c0-10 8-18 18-18h324c10 0 18 8 18 18v46c0 10-8 18-18 18H158Z" fill="#fbb040" opacity="0.95"/>
  <circle cx="486" cy="210" r="22" fill="#0d3c75"/>
  <path d="M486 188v-24" stroke="#fff" stroke-width="10" stroke-linecap="round"/>
  <path d="M486 232v24" stroke="#fff" stroke-width="10" stroke-linecap="round"/>
  <path d="M444 190l-22-20" stroke="#fff" stroke-width="10" stroke-linecap="round"/>
  <path d="M524 230l22 20" stroke="#fff" stroke-width="10" stroke-linecap="round"/>
  <circle cx="204" cy="194" r="26" fill="#fff"/>
  <path d="M180 210h48" stroke="#123573" stroke-width="10" stroke-linecap="round"/>
</svg>
